<?xml version="1.0" encoding="UTF-8" standalone="no"?>
<svg
   xmlns:dc="http://purl.org/dc/elements/1.1/"
   xmlns:cc="http://creativecommons.org/ns#"
   xmlns:rdf="http://www.w3.org/1999/02/22-rdf-syntax-ns#"
   xmlns:svg="http://www.w3.org/2000/svg"
   xmlns="http://www.w3.org/2000/svg"
   xmlns:xlink="http://www.w3.org/1999/xlink"
   xmlns:sodipodi="http://sodipodi.sourceforge.net/DTD/sodipodi-0.dtd"
   xmlns:inkscape="http://www.inkscape.org/namespaces/inkscape"
   version="1.1"
   width="1100"
   height="660"
   viewBox="0 0 1100 660"
   id="svg2"
   inkscape:version="0.47 r22583"
   sodipodi:docname="Flag_of_Berlin.svg">
  <metadata
     id="metadata203">
    <rdf:RDF>
      <cc:Work
         rdf:about="">
        <dc:format>image/svg+xml</dc:format>
        <dc:type
           rdf:resource="http://purl.org/dc/dcmitype/StillImage" />
      </cc:Work>
    </rdf:RDF>
  </metadata>
  <defs
     id="defs201">
    <inkscape:perspective
       sodipodi:type="inkscape:persp3d"
       inkscape:vp_x="0 : 330 : 1"
       inkscape:vp_y="0 : 1000 : 0"
       inkscape:vp_z="1100 : 330 : 1"
       inkscape:persp3d-origin="550 : 220 : 1"
       id="perspective205" />
  </defs>
  <sodipodi:namedview
     pagecolor="#ffffff"
     bordercolor="#666666"
     borderopacity="1"
     objecttolerance="10"
     gridtolerance="10"
     guidetolerance="10"
     inkscape:pageopacity="0"
     inkscape:pageshadow="2"
     inkscape:window-width="1280"
     inkscape:window-height="1004"
     id="namedview199"
     showgrid="false"
     inkscape:zoom="2.0227539"
     inkscape:cx="477.78129"
     inkscape:cy="330.21994"
     inkscape:window-x="-8"
     inkscape:window-y="-8"
     inkscape:window-maximized="1"
     inkscape:current-layer="svg2" />
  <g
     id="g4">
    <rect
       style="fill:#FFFFFF;"
       width="1100"
       height="660"
       id="rect6" />
    <rect
       y="60"
       style="fill:#e2001a;fill-opacity:1"
       width="1100"
       height="60"
       id="rect8" />
    <rect
       y="540"
       style="fill:#e2001a;fill-opacity:1"
       width="1100"
       height="60"
       id="rect10" />
  </g>
  <g
     id="g12">
    <g
       id="g14">
      <path
         id="outer_shield"
         style="fill:#FFFFFF;enable-background:new    ;"
         d="M637.8808594,396.6582031      c0,48.5351563-39.3457031,87.8808594-87.8813477,87.8808594c-48.5351563,0-87.8808594-39.3457031-87.8808594-87.8808594      V267.9033203h175.762207V396.6582031z" />
      <path
         style="fill:#e2001a;fill-opacity:1;stroke:none"
         d="M637.8808594,265.4423828H459.6577148v131.2158203      c0,24.1308594,9.3974609,46.8173828,26.4609375,63.8818359C503.1821289,477.6025391,525.8686523,487,549.9995117,487      c24.1313477,0,46.8168945-9.3974609,63.8813477-26.4599609c17.0625-17.0644531,26.4609375-39.7509766,26.4609375-63.8818359      V265.4423828H637.8808594z M635.4199219,270.3637695c0,4.7353516,0,126.2944336,0,126.2944336      c0,47.1005859-38.3203125,85.4208984-85.4204102,85.4208984c-22.8164063,0-44.2675781-8.8857422-60.4013672-25.0195313      s-25.0185547-37.5849609-25.0185547-60.4013672c0,0,0-121.559082,0-126.2944336      C469.2954102,270.3637695,630.703125,270.3637695,635.4199219,270.3637695z"
         id="path17" />
    </g>
    <g
       id="g19"
       style="fill:#e2001a;fill-opacity:1">
      <path
         style="fill:#e2001a;fill-opacity:1;stroke:none"
         d="M630.1464844,273.527832H467.7426758v123.1303711      c0,45.453125,36.9794922,82.4326172,82.4326172,82.4326172c45.4536133,0,82.4321289-36.9794922,82.4321289-82.4326172      V273.527832H630.1464844z M627.6855469,278.4492188c0,4.7226563,0,118.2089844,0,118.2089844      c0,42.7402344-34.7714844,77.5107422-77.5102539,77.5107422c-42.7392578,0-77.5107422-34.7705078-77.5107422-77.5107422      c0,0,0-113.4863281,0-118.2089844C477.3608398,278.4492188,622.9902344,278.4492188,627.6855469,278.4492188z"
         id="path21" />
    </g>
    <path
       id="body"
       d="M591.9492188,317.234375c0,0-1.40625,24.3720703-13.4765625,52.3759766     c2.4609375,1.875,11.8359375,8.5546875,11.1328125,28.8251953c0,2.34375,0.46875,9.140625,3.3964844,13.9443359     c3.046875,3.6318359,4.8046875,5.625,6.09375,7.0302734c1.2890625,1.40625,1.640625,3.046875-0.9375,5.2734375     c-0.9375,1.5224609-3.8671875,8.2011719-4.8046875,10.3105469c-1.171875,2.109375-5.3886719,13.4755859-18.2792969,12.6552734     c-1.5234375,1.171875-2.7519531,2.2851563-3.1757813,2.5087891c-0.375-0.1494141-1.1230469-0.3486328-0.9492188-0.5986328     c0.1738281-0.2490234,1.3222656-1.6708984,1.3222656-1.8203125s-1.8203125-0.5742188-2.0449219-0.5244141     c-0.2246094,0.0507813-2.8691406,2.3701172-3.1445313,2.3955078c-0.2734375,0.0244141-0.9726563-0.4990234-0.921875-0.8232422     c0.0488281-0.3242188,1.4472656-1.7460938,1.4960938-1.9707031c0.0507813-0.2246094-1.671875-0.8486328-1.9453125-0.7988281     c-0.2753906,0.0507813-2.3945313,2.4199219-2.6699219,2.5205078c-0.2734375,0.0986328-1.0214844-0.5742188-1.0722656-0.7744141     c-0.0488281-0.1992188,1.421875-1.8457031,1.421875-2.0957031c0-0.2490234-1.1972656-1.1972656-1.4472656-1.1972656     c-0.2480469,0-2.6191406,1.4980469-2.9179688,1.4472656c-0.2988281-0.0498047-0.9980469-0.4482422-0.9980469-0.6728516     s2.2949219-1.7470703,2.3457031-2.3212891c0.0488281-0.5732422-0.6738281-0.7226563-0.6992188-1.2460938     c-0.0253906-0.5244141,1.1796875-7.7666016,15.9863281-12.7324219c1.5390625-1.0986328,2.3730469-1.9765625,2.3300781-2.9873047     c-0.0449219-1.0107422-1.7148438-2.0214844-2.4609375-2.1972656     c-0.7480469-0.1757813-17.9726563,0.4833984-18.5878906-22.1904297c0.0878906-1.6689453,0.4394531-6.4150391-3.7773438-8.3486328     c-4.2192383-1.9326172-15.4682617-8.2607422-17.5766602-35.5917969     c-2.7246094,0.0878906-17.1367188,1.2304688-23.9921875,1.2304688c-2.2841797,0-8.9638672,0.1757813-13.0058594-2.7246094     c-0.9667969,0.5273438-2.0371094,1.3857422-2.5195313,1.2695313c-0.4824219-0.1152344-0.8876953-0.7519531-0.7724609-0.9833984     c0.1162109-0.2314453,1.9111328-1.1582031,1.8339844-1.4277344c-0.0771484-0.2705078-1.3505859-1.6025391-1.7558594-1.5830078     s-1.8144531,0.4248047-2.0849609,0.4248047c-0.2695313,0-0.6943359-0.2890625-0.7138672-0.65625     s2.546875-1.4091797,2.4121094-1.9677734c-0.1347656-0.5605469-0.3085938-1.0615234-0.5791016-1.2353516     c-0.2695313-0.1738281-2.5087891,0.1933594-2.6630859-0.2314453s-0.2890625-0.6757813-0.0966797-0.9267578     c0.1933594-0.2509766,1.6210938-0.3466797,1.9306641-0.3652344c0.3085938-0.0195313,1.5244141-0.2705078,1.5244141-1.1201172     c0-0.8486328-2.5673828-1.4277344-2.5478516-1.890625s0.3095703-0.9453125,0.7529297-0.9453125     c0.4443359,0,2.4511719,1.2158203,3.0107422,1.1972656c0.5595703-0.0195313,1.3017578-1.3339844,6.2451172-1.3339844     s7.4042969,2.8994141,12.1054688,3.6025391c4.7021484-0.8349609,16.5810547-4.7744141,21.0332031-7.3525391     c0.0585938-0.5273438,1.5517578-13.2114258,9.1982422-19.2749023c7.6459961-6.0639648,11.3354492-6.3276367,16.081543-8.5249023     c0.0292969,0,0.4394531-0.1464844,0.4394531-1.0546875c0-0.9077148-1.4921875-1.4350586-2.2265625-1.4350586     c-2.2832031,0-2.8984375,1.3178711-4.9785156,1.3178711c-1.171875,0-3.4282227-0.7617188-4.1313477-2.8413086     c-0.1757813-0.1757813-2.2548828-0.5566406-2.2548828-1.3769531c0-0.8198242,1.2587891-1.5527344,4.0424805-1.5527344     c2.7832031,0,6.1210938-0.1464844,8.7578125-1.7573242c2.6367188-1.6113281,0.8496094-3.6616211,0.2050781-4.1010742     s-5.5664063-1.5527344-9.109375-0.4101563c-3.5444336,1.1425781-3.7202148,0.6738281-5.1850586,0.6738281     s-5.3320313,0.1464844-6.1230469-3.4858398c-0.3515625-1.5820313-0.9375-1.2890625-0.9667969-1.9335938     c-0.0283203-0.6445313,0.5869141-0.8203125,0.5869141-1.3769531c0,0-0.1767578-0.46875-0.3232422-1.0839844     s-1.0244141-0.6733398-0.0878906-1.4643555c0.9384766-0.7910156,1.4658203-0.7910156,3.8085938-1.1425781     c2.34375-0.3515625,6.3857422-0.8349609,9.0229492-2.4165039c2.6347656-1.5820313,2.5917969-2.7246094,4.1738281-3.6035156     c1.5820313-0.878418,5.0976563-0.9663086,7.6015625-1.1420898s4.4375,0.3950195,6.9863281-1.8896484     c1.0996094-1.0107422,2.4160156-1.2744141,4.4375-1.2744141s4.6582031,1.6259766,4.8339844,3.5151367     c-0.0429688,0-1.8457031-0.7026367-5.0527344,2.0214844c-0.5273438,0.5273438,0.1308594,1.2304688,0.921875,0.4394531     s4.0429688-1.8457031,5.7558594-1.8457031c1.7148438,0,5.0097656,0.8789063,5.0097656,7.0307617     c0,2.4165039-1.0546875,4.9213867-1.0546875,4.9213867S591.9492188,303.5249023,591.9492188,317.234375z" />
    <path
       id="right_arm"
       d="M539.980957,323.3852539c0,0-5.1552734,8.9057617-5.5068359,11.190918     c-2.4609375-0.6455078-11.0732422-5.2148438-15.4091797-8.6708984     c-4.3349609-3.4570313-6.5029297-6.4155273-8.4365234-11.4248047c-1.9326172-5.0092773-2.1083984-5.331543-2.7529297-7.0888672     c-0.5859375-0.4692383-2.34375-1.9853516-2.34375-2.6220703c0-0.637207,0.0664063-0.637207,0.5927734-0.637207     c0.5273438,0,1.5380859,1.0546875,1.8896484,1.0107422s0.7255859-0.4394531,0.7255859-0.7910156     s-1.6699219-2.1313477-1.6699219-2.5488281s0.3076172-0.7905273,0.7685547-0.769043     c0.4619141,0.0224609,1.4501953,1.5820313,1.9775391,1.472168s1.0546875-0.3955078,1.0107422-0.7250977     s-1.2304688-1.9331055-1.1865234-2.2626953s0.3955078-0.6591797,0.8134766-0.5932617     c0.4169922,0.065918,1.8671875,2.4384766,2.2402344,2.4604492c0.3740234,0.0219727,0.8134766-0.1098633,0.8134766-0.3291016     c0-0.2197266-0.3632813-2.5375977-0.1757813-2.7246094c0.1865234-0.1865234,0.7685547-0.3955078,1.0761719-0.0878906     s0.8457031,3.1308594,1.1640625,3.4492188c0.3193359,0.3188477,5.6035156,1.4213867,8.0048828,10.2675781     c0.5859375,1.2304688,1.4355469,2.9589844,3.6328125,5.15625     C529.8745117,318.9042969,531.3100586,320.8662109,539.980957,323.3852539z" />
    <path
       id="right_leg"
       d="M540.684082,383.6132813c0,0,1.2314453,4.4521484,12.4213867,11.1318359     c-0.9960938,1.9921875-3.809082,6.5029297-4.1010742,8.6123047c-0.2939453,2.1083984-1.9931641,8.3779297,0.8193359,15.2324219     c0.3515625,1.2890625,1.5239258,4.6865234,1.9926758,5.8007813c0.46875,1.1123047,0.8789063,4.0419922-2.284668,5.2724609     c-3.1640625,1.2304688-9.2578125,6.2695313-11.1904297,7.6162109c-1.9335938,1.3476563-5.2148438,4.1601563-10.4873047,4.5693359     c-5.2734375,0.4111328-9.4326172,0.2353516-12.1865234-0.8193359c-1.3476563,0.5273438-2.7246094,2.0800781-3.5146484,2.0800781     c-0.7910156,0-0.7910156-0.234375-0.7910156-0.5566406s1.6542969-1.5380859,1.4345703-1.7578125     s-0.8193359-0.6445313-1.2587891-0.6445313s-2.2050781,1.2080078-3.0400391,1.2080078s-0.8349609-0.3515625-0.8349609-0.7246094     s1.9121094-1.4941406,1.9121094-1.8671875c0-0.3740234-1.3408203-1.2744141-1.7363281-1.2744141     s-1.515625,0.6152344-1.9550781,0.6152344s-1.4277344-0.4394531-1.4277344-0.8134766     c0-0.3730469,2.5039063-1.5371094,2.5039063-1.8447266s0.3076172-1.3183594-0.1972656-1.4726563     c-0.5058594-0.1533203-0.8125-0.0654297-1.2744141-0.0654297c-0.4609375,0-1.4277344,0.3955078-1.9990234,0.3955078     s-0.8134766-0.6376953-0.5712891-1.0986328c0.2412109-0.4619141,3.3505859-1.0878906,3.9101563-1.6474609     c0.5605469-0.5605469,3.7138672-4.9433594,8.5908203-5.734375c1.4501953-0.3515625,4.4814453-0.7470703,5.7998047-0.7470703     s4.9658203,0.5273438,4.9658203-2.5048828c-1.0107422-3.1201172-3.6035156-8.9199219-3.6035156-13.3574219     C522.5805664,404.7783203,523.2836914,395.5068359,540.684082,383.6132813z" />
    <path
       id="tounge"
       style="fill:#e2001a;fill-opacity:1"
       d="M529.7290039,302.8798828c0,0,3.9833984,8.6708984,15.9941406,2.8710938     c3.28125-1.4648438,9.0229492-3.3984375,14.2944336-0.8203125l1.40625-0.8203125c0,0-9.6660156-4.3354492-18.1030273,0.8203125     C540.215332,306.043457,533.7709961,308.0942383,529.7290039,302.8798828z" />
    <path
       id="ear_hole"
       style="fill:#FFFFFF;"
       d="M578.765625,288.4970703c0,0-1.4941406,0.644043-1.8144531,0.644043     c-0.3222656,0-0.6464844-0.4101563,0.0566406-0.8198242c0.703125-0.4101563,1.7871094-1.0253906,2.578125-1.0253906     s1.4648438,0.9663086,0.3222656,1.0834961C578.765625,288.4970703,579.0722656,288.3686523,578.765625,288.4970703z" />
    <path
       id="eye"
       style="fill:#FFFFFF;"
       d="M557.6738281,292.7885742c0.3417969-0.0844727,0.6015625,0.2485352,0.7910156,0.4389648     c0.1914063,0.190918,0.7988281,0.2416992,0.9082031,0.1318359c0.1113281-0.109375,0.234375-0.3222656,0-0.5561523     c-3.6171875-2.3583984-3.6386719-3.8320313-3.9765625-4.0356445c-0.3457031-0.2089844-0.5996094-0.3076172-0.8710938-0.0366211     c-0.4179688,0.4174805,0.2851563,0.6591797,0.5390625,1.1098633     C555.3164063,290.2910156,554.671875,293.5283203,557.6738281,292.7885742z" />
    <polygon
       style="fill:#e2001a;fill-opacity:1;stroke:none"
       points="557.7382813,227.9511719 540.1625977,227.9511719 539.9204102,221.2719727      557.9960938,221.2719727 "
       id="polygon29" />
    <polygon
       style="fill:#e2001a;fill-opacity:1;stroke:none"
       points="558.0703125,219.3481445 539.8510742,219.3481445 539.6108398,212.6689453      558.328125,212.6689453 "
       id="polygon31" />
    <polygon
       style="fill:#e2001a;fill-opacity:1;stroke:none"
       points="558.4023438,210.7451172 539.5415039,210.7451172 539.300293,204.0664063      558.6601563,204.0664063 "
       id="polygon33" />
    <polygon
       style="fill:#e2001a;fill-opacity:1;stroke:none"
       points="558.7441406,202.1420898 539.230957,202.1420898 538.9907227,195.4633789      558.9921875,195.4633789 "
       id="polygon35" />
    <polygon
       style="fill:#e2001a;fill-opacity:1;stroke:none"
       points="559.0664063,193.5390625 538.9213867,193.5390625 538.6801758,186.8603516      559.3242188,186.8603516 "
       id="polygon37" />
    <polygon
       style="fill:#e2001a;fill-opacity:1;stroke:none"
       points="559.3984375,184.9365234 538.6108398,184.9365234 538.3696289,178.2573242      559.65625,178.2573242 "
       id="polygon39" />
    <polygon
       style="fill:#e2001a;fill-opacity:1;stroke:none"
       points="559.7304688,176.3334961 538.300293,176.3334961 538.0600586,169.6542969      559.9882813,169.6542969 "
       id="polygon41" />
    <polygon
       style="fill:#e2001a;fill-opacity:1;stroke:none"
       points="560.0625,167.7304688 537.9907227,167.7304688 537.7495117,161.0517578      560.3222656,161.0517578 "
       id="polygon43" />
    <polygon
       style="fill:#e2001a;fill-opacity:1;stroke:none"
       points="536.9926758,140.0703125 537.6831055,159.1948242 560.390625,159.1948242      561.1308594,140.0703125 556.1503906,140.0703125 555.5800781,153.4819336 552.1523438,153.4819336 552.1523438,140.0703125      547.230957,140.0703125 546.9233398,153.2182617 542.6616211,153.2182617 542.4858398,140.0703125 "
       id="polygon45" />
    <polygon
       style="fill:#e2001a;fill-opacity:1;stroke:none"
       points="563.5917969,166.5473633 571.3261719,166.8989258 570.9921875,171.6757813      563.3730469,171.2348633 "
       id="polygon47" />
    <polygon
       style="fill:#e2001a;fill-opacity:1;stroke:none"
       points="563.2089844,174.7045898 570.7539063,175.0986328 570.4277344,179.7646484      562.9902344,179.4018555 "
       id="polygon49" />
    <polygon
       style="fill:#e2001a;fill-opacity:1;stroke:none"
       points="562.8105469,183.2348633 570.1582031,183.6279297 569.8242188,188.4121094      562.5898438,187.9262695 "
       id="polygon51" />
    <polygon
       style="fill:#e2001a;fill-opacity:1;stroke:none"
       points="562.3808594,192.3666992 569.5175781,192.8125 569.2128906,197.1660156      562.171875,196.8496094 "
       id="polygon53" />
    <polygon
       style="fill:#e2001a;fill-opacity:1;stroke:none"
       points="561.96875,200.762207 568.9335938,201.15625 568.6171875,205.6855469      561.7792969,205.1943359 "
       id="polygon55" />
    <polygon
       style="fill:#e2001a;fill-opacity:1;stroke:none"
       points="561.5820313,209.4155273 568.3261719,209.8642578 568.0351563,214.0395508      561.3789063,213.7207031 "
       id="polygon57" />
    <polygon
       style="fill:#e2001a;fill-opacity:1;stroke:none"
       points="561.1835938,217.8979492 567.7460938,218.1621094 567.4589844,222.300293      561.0019531,221.7626953 "
       id="polygon59" />
    <path
       style="fill:#e2001a;fill-opacity:1;stroke:none"
       d="M613.859375,264.0366211c-77.1000977-19.6850586-129.5942383,0-129.5942383,0l-2.8125-10.0185547     l2.9873047-0.9667969l-0.4394531-2.1088867c0,0,68.284668-17.4882813,129.9760742,1.3178711l-0.6445313,1.6992188     l3.28125,1.40625L613.859375,264.0366211z"
       id="path61" />
    <path
       style="fill:#e2001a;fill-opacity:1;stroke:none"
       d="M483.2094727,247.9838867c0,0,72.1811523-16.1704102,131.2358398,1.5229492     c0.9375-3.0463867,1.5234375-5.0385742,1.5234375-5.0385742s-53.6660156-16.8144531-133.8129883-0.9960938     L483.2094727,247.9838867z"
       id="path63" />
    <path
       style="fill:#e2001a;fill-opacity:1;stroke:none"
       d="M478.6401367,241.5390625c0,0,70.3046875-16.6386719,141.3129883,0.9375l1.640625-6.5620117     l-3.2226563-1.40625v2.8125c0,0-56.0683594-17.1083984-136.918457-1.4067383l-0.703125-2.1669922l-4.2763672,1.0541992     L478.6401367,241.5390625z"
       id="path65" />
    <g
       id="g67"
       style="fill:#e2001a;fill-opacity:1;stroke:none">
      <path
         style="fill:#e2001a;fill-opacity:1;stroke:none"
         d="M525.2084961,248.5458984c-23.4785156,2.1264648-39.5429688,6.8305664-39.7021484,6.8779297      l0.7988281,2.6962891c0.1572266-0.046875,16.0087891-4.6831055,39.2275391-6.7797852      c21.3925781-1.9316406,53.6000977-2.0410156,85.5473633,8.4082031l0.8730469-2.6728516      C579.5253906,246.4692383,546.8823242,246.5830078,525.2084961,248.5458984z"
         id="path69" />
    </g>
    <g
       xlink:href="#tower"
       id="g71" />
    <polygon
       style="fill:#e2001a;fill-opacity:1;stroke:none"
       points="588.3632813,230.1557617 570.8691406,228.4716797 571.2695313,221.7998047      589.2597656,223.5322266 "
       id="polygon73" />
    <polygon
       style="fill:#e2001a;fill-opacity:1;stroke:none"
       points="589.5195313,221.6245117 571.3847656,219.878418 571.7851563,213.2070313      590.4160156,215.0009766 "
       id="polygon75" />
    <polygon
       style="fill:#e2001a;fill-opacity:1;stroke:none"
       points="590.6738281,213.0927734 571.9003906,211.2851563 572.3007813,204.6137695      591.5703125,206.4697266 "
       id="polygon77" />
    <polygon
       style="fill:#e2001a;fill-opacity:1;stroke:none"
       points="591.8378906,204.5625 572.4160156,202.6923828 572.8164063,196.0209961      592.7265625,197.9379883 "
       id="polygon79" />
    <polygon
       style="fill:#e2001a;fill-opacity:1;stroke:none"
       points="592.984375,196.0297852 572.9316406,194.0991211 573.3320313,187.4277344      593.8808594,189.40625 "
       id="polygon81" />
    <polygon
       style="fill:#e2001a;fill-opacity:1;stroke:none"
       points="594.140625,187.4985352 573.4472656,185.5058594 573.8476563,178.8349609      595.0371094,180.875 "
       id="polygon83" />
    <polygon
       style="fill:#e2001a;fill-opacity:1;stroke:none"
       points="595.2949219,178.9667969 573.9628906,176.9130859 574.3632813,170.2416992      596.1914063,172.34375 "
       id="polygon85" />
    <polygon
       style="fill:#e2001a;fill-opacity:1;stroke:none"
       points="596.4492188,170.4355469 574.4785156,168.3198242 574.8789063,161.6489258      597.3476563,163.8120117 "
       id="polygon87" />
    <polygon
       style="fill:#e2001a;fill-opacity:1;stroke:none"
       points="576.1367188,140.6914063 574.9902344,159.7939453 597.59375,161.9707031      600.1640625,143.0048828 595.2070313,142.527832 593.3535156,155.8232422 589.9414063,155.4946289 591.2265625,142.1445313      586.328125,141.6728516 584.7617188,154.730957 580.5195313,154.3222656 581.6054688,141.2177734 "
       id="polygon89" />
    <g
       xlink:href="#tower"
       id="g91" />
    <polygon
       style="fill:#e2001a;fill-opacity:1;stroke:none"
       points="527.8598633,228.5004883 510.3657227,230.1845703 509.4848633,223.5595703      527.4760742,221.8271484 "
       id="polygon93" />
    <polygon
       style="fill:#e2001a;fill-opacity:1;stroke:none"
       points="527.3657227,219.9052734 509.230957,221.6513672 508.3510742,215.0263672      526.9819336,213.2319336 "
       id="polygon95" />
    <polygon
       style="fill:#e2001a;fill-opacity:1;stroke:none"
       points="526.871582,211.3100586 508.0981445,213.1176758 507.2182617,206.4926758      526.4887695,204.637207 "
       id="polygon97" />
    <polygon
       style="fill:#e2001a;fill-opacity:1;stroke:none"
       points="526.3881836,202.7138672 506.9643555,204.5839844 506.0844727,197.9589844      525.9946289,196.0419922 "
       id="polygon99" />
    <polygon
       style="fill:#e2001a;fill-opacity:1;stroke:none"
       points="525.8842773,194.1196289 505.831543,196.050293 504.9516602,189.425293      525.5004883,187.4467773 "
       id="polygon101" />
    <polygon
       style="fill:#e2001a;fill-opacity:1;stroke:none"
       points="525.3901367,185.5244141 504.6977539,187.5166016 503.8178711,180.8916016      525.0073242,178.8515625 "
       id="polygon103" />
    <polygon
       style="fill:#e2001a;fill-opacity:1;stroke:none"
       points="524.8969727,176.9291992 503.5649414,178.9833984 502.6850586,172.3583984      524.5131836,170.2563477 "
       id="polygon105" />
    <polygon
       style="fill:#e2001a;fill-opacity:1;stroke:none"
       points="524.402832,168.3339844 502.4311523,170.449707 501.5512695,163.824707      524.019043,161.6611328 "
       id="polygon107" />
    <polygon
       style="fill:#e2001a;fill-opacity:1;stroke:none"
       points="498.7875977,143.0126953 501.3071289,161.9829102 523.9116211,159.8061523      522.8149414,140.6987305 517.8579102,141.1762695 518.574707,154.5810547 515.1625977,154.909668 513.8774414,141.5595703      508.9790039,142.03125 509.9331055,155.1484375 505.6899414,155.5566406 504.2553711,142.4858398 "
       id="polygon109" />
    <g
       xlink:href="#tower"
       id="g111" />
    <polygon
       style="fill:#e2001a;fill-opacity:1;stroke:none"
       points="498.1889648,231.4169922 480.9360352,234.7705078 479.4243164,228.2602539      497.1674805,224.8115234 "
       id="polygon113" />
    <polygon
       style="fill:#e2001a;fill-opacity:1;stroke:none"
       points="496.8725586,222.9086914 478.9897461,226.3847656 477.4790039,219.8745117      495.8520508,216.3032227 "
       id="polygon115" />
    <polygon
       style="fill:#e2001a;fill-opacity:1;stroke:none"
       points="495.5571289,214.4003906 477.043457,217.9995117 475.5327148,211.4892578      494.5366211,207.7949219 "
       id="polygon117" />
    <polygon
       style="fill:#e2001a;fill-opacity:1;stroke:none"
       points="494.2514648,205.890625 475.097168,209.6137695 473.5864258,203.1035156      493.2211914,199.2871094 "
       id="polygon119" />
    <polygon
       style="fill:#e2001a;fill-opacity:1;stroke:none"
       points="492.9272461,197.3837891 473.1508789,201.2280273 471.6401367,194.7177734      491.9057617,190.7783203 "
       id="polygon121" />
    <polygon
       style="fill:#e2001a;fill-opacity:1;stroke:none"
       points="491.6118164,188.8754883 471.2055664,192.8422852 469.6948242,186.3320313      490.590332,182.2700195 "
       id="polygon123" />
    <polygon
       style="fill:#e2001a;fill-opacity:1;stroke:none"
       points="490.2963867,180.3671875 469.2592773,184.456543 467.7485352,177.9462891      489.2749023,173.7617188 "
       id="polygon125" />
    <polygon
       style="fill:#e2001a;fill-opacity:1;stroke:none"
       points="488.980957,171.859375 467.3129883,176.0708008 465.8022461,169.5605469      487.9594727,165.2539063 "
       id="polygon127" />
    <polygon
       style="fill:#e2001a;fill-opacity:1;stroke:none"
       points="461.0571289,149.1088867 465.3833008,167.7509766 487.6743164,163.4179688      484.7514648,144.503418 479.862793,145.4536133 481.8608398,158.7280273 478.496582,159.3818359 475.9379883,146.2163086      471.1069336,147.1557617 473.3139648,160.1210938 469.1293945,160.934082 466.4487305,148.0610352 "
       id="polygon129" />
    <g
       xlink:href="#tower"
       id="g131" />
    <polygon
       style="fill:#e2001a;fill-opacity:1;stroke:none"
       points="618.3964844,235.3842773 601.1445313,232.0307617 602.1816406,225.4282227      619.9238281,228.8774414 "
       id="polygon133" />
    <polygon
       style="fill:#e2001a;fill-opacity:1;stroke:none"
       points="620.3632813,227.0029297 602.4804688,223.5263672 603.5175781,216.9243164      621.8925781,220.4956055 "
       id="polygon135" />
    <polygon
       style="fill:#e2001a;fill-opacity:1;stroke:none"
       points="622.3320313,218.621582 603.8164063,215.0224609 604.8554688,208.4204102      623.859375,212.1142578 "
       id="polygon137" />
    <polygon
       style="fill:#e2001a;fill-opacity:1;stroke:none"
       points="624.3085938,210.2416992 605.1542969,206.5185547 606.1933594,199.9165039      625.828125,203.7329102 "
       id="polygon139" />
    <polygon
       style="fill:#e2001a;fill-opacity:1;stroke:none"
       points="626.2675781,201.8583984 606.4921875,198.0141602 607.5292969,191.4121094      627.7949219,195.3510742 "
       id="polygon141" />
    <polygon
       style="fill:#e2001a;fill-opacity:1;stroke:none"
       points="628.234375,193.4770508 607.828125,189.5102539 608.8671875,182.9082031      629.7617188,186.9697266 "
       id="polygon143" />
    <polygon
       style="fill:#e2001a;fill-opacity:1;stroke:none"
       points="630.203125,185.0957031 609.1660156,181.0063477 610.203125,174.4042969      631.7304688,178.5883789 "
       id="polygon145" />
    <polygon
       style="fill:#e2001a;fill-opacity:1;stroke:none"
       points="632.1699219,176.7138672 610.5019531,172.5024414 611.5410156,165.9003906      633.6972656,170.2070313 "
       id="polygon147" />
    <polygon
       style="fill:#e2001a;fill-opacity:1;stroke:none"
       points="614.8007813,145.1601563 611.8300781,164.0649414 634.1210938,168.3979492      638.4960938,149.765625 633.6074219,148.8154297 630.4882813,161.8720703 627.1230469,161.2177734 629.6835938,148.0527344      624.8515625,147.1132813 622.0410156,159.9614258 617.8574219,159.1479492 620.1933594,146.2080078 "
       id="polygon149" />
    <g
       xlink:href="#stones"
       id="g151" />
    <polygon
       style="fill:#e2001a;fill-opacity:1;stroke:none"
       points="600.0761719,169.5957031 607.7402344,170.6870117 606.9511719,175.4101563      599.4082031,174.2407227 "
       id="polygon153" />
    <polygon
       style="fill:#e2001a;fill-opacity:1;stroke:none"
       points="598.9140625,177.6787109 606.3847656,178.7944336 605.6132813,183.4072266      598.2441406,182.3339844 "
       id="polygon155" />
    <polygon
       style="fill:#e2001a;fill-opacity:1;stroke:none"
       points="597.6972656,186.1318359 604.9746094,187.2270508 604.1835938,191.9575195      597.0292969,190.7807617 "
       id="polygon157" />
    <polygon
       style="fill:#e2001a;fill-opacity:1;stroke:none"
       points="596.3964844,195.1806641 603.4550781,196.3081055 602.7363281,200.6123047      595.7578125,199.6225586 "
       id="polygon159" />
    <polygon
       style="fill:#e2001a;fill-opacity:1;stroke:none"
       points="595.1816406,203.4975586 602.0761719,204.5576172 601.328125,209.0361328      594.5683594,207.8911133 "
       id="polygon161" />
    <polygon
       style="fill:#e2001a;fill-opacity:1;stroke:none"
       points="593.9667969,212.0742188 600.6367188,213.1674805 599.9472656,217.2954102      593.3515625,216.3398438 "
       id="polygon163" />
    <polygon
       style="fill:#e2001a;fill-opacity:1;stroke:none"
       points="592.7578125,220.4794922 599.265625,221.371582 598.5800781,225.4628906      592.2070313,224.3085938 "
       id="polygon165" />
    <g
       xlink:href="#stones"
       id="g167" />
    <polygon
       style="fill:#e2001a;fill-opacity:1;stroke:none"
       points="527.8022461,166.8178711 535.5336914,166.4267578 535.659668,171.2138672      528.0327148,171.5053711 "
       id="polygon169" />
    <polygon
       style="fill:#e2001a;fill-opacity:1;stroke:none"
       points="528.2026367,174.9746094 535.7495117,174.644043 535.8725586,179.3193359      528.434082,179.6713867 "
       id="polygon171" />
    <polygon
       style="fill:#e2001a;fill-opacity:1;stroke:none"
       points="528.6225586,183.5039063 535.9741211,183.1904297 536.1010742,187.9848633      528.8530273,188.1948242 "
       id="polygon173" />
    <polygon
       style="fill:#e2001a;fill-opacity:1;stroke:none"
       points="529.0708008,192.6347656 536.2163086,192.3945313 536.331543,196.7568359      529.2915039,197.1171875 "
       id="polygon175" />
    <polygon
       style="fill:#e2001a;fill-opacity:1;stroke:none"
       points="529.465332,201.03125 536.4360352,200.7558594 536.5561523,205.2949219      529.7016602,205.4609375 "
       id="polygon177" />
    <polygon
       style="fill:#e2001a;fill-opacity:1;stroke:none"
       points="529.9086914,209.6816406 536.6665039,209.4819336 536.7758789,213.6660156      530.1206055,213.9863281 "
       id="polygon179" />
    <polygon
       style="fill:#e2001a;fill-opacity:1;stroke:none"
       points="530.3266602,218.1630859 536.8842773,217.7973633 536.9936523,221.9438477      530.5161133,222.0273438 "
       id="polygon181" />
    <g
       xlink:href="#stones"
       id="g183" />
    <polygon
       style="fill:#e2001a;fill-opacity:1;stroke:none"
       points="492.2192383,170.0244141 499.8774414,168.8935547 500.4614258,173.6464844      492.8979492,174.6674805 "
       id="polygon185" />
    <polygon
       style="fill:#e2001a;fill-opacity:1;stroke:none"
       points="493.3999023,178.1049805 500.8793945,177.0522461 501.4506836,181.6943359      494.0805664,182.7578125 "
       id="polygon187" />
    <polygon
       style="fill:#e2001a;fill-opacity:1;stroke:none"
       points="494.6352539,186.5546875 501.9233398,185.5380859 502.5083008,190.2983398      495.3139648,191.2021484 "
       id="polygon189" />
    <polygon
       style="fill:#e2001a;fill-opacity:1;stroke:none"
       points="495.956543,195.6005859 503.0463867,194.6767578 503.5786133,199.0078125      496.605957,200.0410156 "
       id="polygon191" />
    <polygon
       style="fill:#e2001a;fill-opacity:1;stroke:none"
       points="497.1538086,203.9204102 504.065918,202.9785156 504.6206055,207.4848633      497.8139648,208.3071289 "
       id="polygon193" />
    <polygon
       style="fill:#e2001a;fill-opacity:1;stroke:none"
       points="498.4243164,212.4887695 505.1313477,211.6420898 505.6420898,215.7963867      499.0483398,216.7529297 "
       id="polygon195" />
    <polygon
       style="fill:#e2001a;fill-opacity:1;stroke:none"
       points="499.652832,220.8911133 506.1459961,219.8984375 506.6518555,224.0151367      500.2124023,224.7192383 "
       id="polygon197" />
  </g>
</svg>
