<?xml version="1.0" encoding="utf-8"?>
<!-- Generator: Adobe Illustrator 15.0.2, SVG Export Plug-In . SVG Version: 6.00 Build 0)  -->
<!DOCTYPE svg PUBLIC "-//W3C//DTD SVG 1.1//EN" "http://www.w3.org/Graphics/SVG/1.1/DTD/svg11.dtd">
<svg version="1.1" id="Layer_1" xmlns="http://www.w3.org/2000/svg" xmlns:xlink="http://www.w3.org/1999/xlink" x="0px" y="0px"
	 width="350px" height="203px" viewBox="0 0 350 203" enable-background="new 0 0 350 203" xml:space="preserve">
<g id="Layer_5">
	<rect fill="#252F6B" width="350" height="203"/>
</g>
<g id="Ring">
	<circle fill="#FAD704" cx="175" cy="101.5" r="70"/>
	<path fill="#252F6B" d="M175,33.5c-37.555,0-68,30.445-68,68c0,37.557,30.445,68,68,68c37.557,0,68-30.443,68-68
		C243,63.945,212.557,33.5,175,33.5z M175,156.834c-30.56,0-55.334-24.773-55.334-55.334c0-30.56,24.774-55.334,55.334-55.334
		c30.561,0,55.334,24.774,55.334,55.334C230.334,132.061,205.561,156.834,175,156.834z"/>
	<circle fill="#FFFFFF" cx="175" cy="101.5" r="53"/>
	<polygon fill="#FAD704" points="175,159.199 175.777,161.596 178.298,161.596 176.26,163.076 177.038,165.473 175,163.991 
		172.961,165.473 173.74,163.076 171.702,161.596 174.222,161.596 	"/>
	<polygon fill="#FAD704" points="201.906,153.298 203.725,155.042 205.945,153.852 204.85,156.119 206.667,157.863 204.171,157.521 
		203.074,159.79 202.628,157.311 200.132,156.969 202.354,155.777 	"/>
	<polygon fill="#FAD704" points="149.893,153.298 148.074,155.042 145.854,153.852 146.95,156.119 145.132,157.863 147.628,157.521 
		148.725,159.79 149.171,157.311 151.667,156.969 149.446,155.777 	"/>
	<g>
		<path fill="#FAD704" d="M125.834,142.511c-0.146,0-0.296-0.022-0.447-0.067c-0.488-0.147-0.98-0.534-1.461-1.151
			c-0.46-0.589-0.717-1.115-0.764-1.562c-0.048-0.457,0.114-0.906,0.482-1.334l0.069-0.08l1.007,0.979l-0.057,0.071
			c-0.146,0.183-0.213,0.378-0.2,0.578c0.014,0.207,0.123,0.443,0.326,0.703c0.288,0.369,0.553,0.557,0.788,0.557l0,0
			c0.109,0,0.213-0.04,0.317-0.121s0.165-0.169,0.188-0.27c0.025-0.106,0.018-0.236-0.021-0.385
			c-0.04-0.158-0.167-0.457-0.375-0.892c-0.255-0.522-0.421-0.92-0.493-1.181c-0.074-0.271-0.1-0.504-0.079-0.713
			s0.086-0.41,0.195-0.598c0.11-0.188,0.268-0.361,0.469-0.52c0.336-0.262,0.693-0.396,1.059-0.396c0.155,0,0.313,0.022,0.472,0.071
			c0.523,0.154,1.052,0.57,1.573,1.238c0.475,0.609,0.744,1.183,0.799,1.701c0.056,0.53-0.104,1.027-0.474,1.479l-0.067,0.082
			l-1.035-0.954l0.056-0.072c0.182-0.236,0.255-0.472,0.226-0.72c-0.031-0.252-0.17-0.537-0.414-0.851
			c-0.338-0.434-0.648-0.652-0.921-0.652c-0.124,0-0.24,0.044-0.356,0.135c-0.113,0.088-0.178,0.189-0.198,0.311
			c-0.022,0.129-0.009,0.281,0.041,0.453c0.052,0.181,0.194,0.504,0.423,0.963c0.194,0.42,0.318,0.717,0.376,0.896
			c0.059,0.181,0.099,0.356,0.118,0.524c0.02,0.172,0.012,0.342-0.025,0.505c-0.038,0.161-0.107,0.319-0.208,0.472
			s-0.238,0.297-0.411,0.432C126.502,142.389,126.173,142.511,125.834,142.511z"/>
		<polygon fill="#FAD704" points="118.27,132.636 119.26,132.04 121.013,134.96 122.113,134.3 120.492,131.6 121.482,131.004 
			123.104,133.705 124.264,133.009 122.423,129.941 123.413,129.348 125.994,133.645 120.762,136.785 		"/>
		<path fill="#FAD704" d="M115.459,126.753l4.695-4.483l0.578,1.314l-1.17,1.087l0.848,1.929l1.591-0.127l0.583,1.328l-6.482,0.416
			L115.459,126.753z M117.45,126.563l-0.426,0.373l0.117-0.016c0.128-0.016,0.827-0.076,2.094-0.182l-0.57-1.297L117.45,126.563z"/>
		<polygon fill="#FAD704" points="113.253,120.738 117.993,119.32 117.085,116.286 118.192,115.956 119.511,120.365 
			113.666,122.113 		"/>
		<path fill="#FAD704" d="M113.516,110.771c-0.755,0-1.392-0.205-1.892-0.609c-0.599-0.485-0.95-1.215-1.045-2.17
			c-0.095-0.954,0.109-1.739,0.606-2.336c0.496-0.594,1.231-0.944,2.186-1.039c0.149-0.016,0.295-0.021,0.437-0.021
			c0.454,0,0.877,0.077,1.259,0.23c0.505,0.201,0.914,0.527,1.214,0.968c0.299,0.438,0.481,0.972,0.543,1.586
			c0.094,0.946-0.115,1.729-0.623,2.324c-0.506,0.596-1.253,0.946-2.22,1.044C113.821,110.764,113.666,110.771,113.516,110.771z
			 M113.888,106.05c-0.119,0-0.243,0.007-0.373,0.021c-0.607,0.061-1.072,0.252-1.384,0.568c-0.311,0.316-0.437,0.721-0.386,1.237
			c0.052,0.522,0.254,0.899,0.62,1.147c0.293,0.201,0.673,0.304,1.126,0.304c0.111,0,0.227-0.007,0.347-0.019
			c0.618-0.062,1.094-0.258,1.416-0.582c0.321-0.324,0.453-0.729,0.403-1.232c-0.052-0.523-0.256-0.898-0.625-1.146
			C114.738,106.15,114.353,106.05,113.888,106.05z"/>
		<polygon fill="#FAD704" points="110.312,101.98 110.427,97.429 111.582,97.458 111.503,100.574 113.129,100.615 113.205,97.596 
			114.36,97.625 114.284,100.644 116.449,100.699 116.413,102.135 		"/>
		<polygon fill="#FAD704" points="111.178,90.774 112.252,85.633 113.383,85.87 112.992,87.739 117.834,88.751 117.541,90.157 
			112.699,89.144 112.309,91.01 		"/>
		<polygon fill="#FAD704" points="112.959,83.06 113.423,81.701 115.647,82.461 116.415,80.217 114.191,79.457 114.655,78.098 
			120.429,80.071 119.965,81.43 117.571,80.612 116.804,82.856 119.198,83.674 118.733,85.033 		"/>
		<polygon fill="#FAD704" points="115.886,75.168 118.021,70.823 119.058,71.332 117.556,74.388 118.708,74.954 120.096,72.127 
			121.133,72.636 119.744,75.463 120.959,76.061 122.537,72.85 123.574,73.359 121.363,77.858 		"/>
		<path fill="#FAD704" d="M126.208,67.304c-0.667,0-1.353-0.264-2.037-0.783c-0.79-0.6-1.248-1.277-1.363-2.012
			c-0.115-0.737,0.125-1.504,0.714-2.279c0.429-0.564,0.9-0.944,1.4-1.129c0.248-0.091,0.505-0.138,0.766-0.138
			c0.27,0,0.55,0.05,0.832,0.148l0.099,0.034l-0.498,1.234l-0.091-0.033c-0.131-0.048-0.266-0.072-0.399-0.072
			c-0.139,0-0.281,0.026-0.423,0.077c-0.282,0.102-0.531,0.293-0.739,0.567c-0.318,0.418-0.431,0.836-0.337,1.244
			c0.095,0.415,0.402,0.821,0.912,1.208c0.495,0.375,0.958,0.565,1.379,0.565c0.495-0.021,0.875-0.243,1.194-0.663
			c0.427-0.563,0.44-1.153,0.041-1.804l-0.052-0.084l1.146-0.718l0.052,0.088c0.323,0.545,0.461,1.098,0.409,1.642
			c-0.051,0.541-0.274,1.074-0.663,1.586c-0.589,0.775-1.275,1.214-2.042,1.304C126.41,67.298,126.309,67.304,126.208,67.304z"/>
		<path fill="#FAD704" d="M128.446,56.627l1.123-1.137l5.899,2.712l-1.01,1.022l-1.441-0.688l-1.481,1.499l0.705,1.433l-1.019,1.031
			L128.446,56.627z M130.034,57.117c0.062,0.114,0.375,0.741,0.941,1.88l0.996-1.008l-1.49-0.717l-0.501-0.257
			C129.997,57.047,130.015,57.082,130.034,57.117z"/>
		<path fill="#FAD704" d="M133.22,52.087l1.238-0.965l4.493,1.854c-0.166-0.182-0.316-0.358-0.449-0.529l-2.17-2.786l1.023-0.797
			l3.75,4.813l-1.268,0.988l-4.438-1.844c0.159,0.173,0.29,0.325,0.393,0.457l2.201,2.825L136.97,56.9L133.22,52.087z"/>
		<path fill="#FAD704" d="M141.574,46.14l1.377-0.81l5.005,4.135l-1.239,0.729l-1.216-1.034l-1.816,1.068l0.313,1.565l-1.25,0.735
			L141.574,46.14z M142.984,47.021c0.03,0.126,0.172,0.813,0.426,2.059l1.221-0.718l-1.256-1.076l-0.42-0.379L142.984,47.021z"/>
		<polygon fill="#FAD704" points="147.341,43.006 148.658,42.435 150.625,46.975 153.532,45.715 153.99,46.774 149.768,48.605 		"/>
		<polygon fill="#FAD704" points="159.021,44.089 161.128,39.532 158.432,40.161 158.166,39.023 162.498,38.013 162.715,38.947 
			160.612,43.521 163.786,42.78 164.051,43.917 159.243,45.039 		"/>
		<path fill="#FAD704" d="M168.491,43.367c-0.747,0-1.38-0.215-1.881-0.639c-0.597-0.504-0.951-1.25-1.05-2.216
			c-0.099-0.965,0.096-1.758,0.579-2.358c0.483-0.601,1.211-0.955,2.166-1.053c0.158-0.016,0.312-0.024,0.46-0.024
			c0.748,0,1.38,0.21,1.878,0.623c0.597,0.495,0.949,1.229,1.047,2.182c0.064,0.625-0.004,1.196-0.204,1.697
			c-0.2,0.505-0.524,0.914-0.964,1.216c-0.437,0.3-0.969,0.485-1.583,0.548C168.784,43.359,168.635,43.367,168.491,43.367z
			 M168.642,38.255c-0.071,0-0.144,0.004-0.218,0.012c-0.524,0.054-0.899,0.258-1.148,0.623c-0.249,0.366-0.343,0.862-0.279,1.474
			c0.063,0.618,0.261,1.094,0.587,1.415c0.28,0.276,0.617,0.41,1.028,0.41c0.066,0,0.135-0.003,0.205-0.011
			c0.523-0.053,0.898-0.259,1.145-0.628c0.247-0.369,0.339-0.88,0.273-1.518c-0.063-0.607-0.255-1.072-0.574-1.382
			C169.394,38.388,169.051,38.255,168.642,38.255z"/>
		<path fill="#FAD704" d="M177.805,43.006l-2.24-4.253c0.012,0.235,0.016,0.436,0.011,0.603l-0.108,3.58l-1.297-0.039l0.183-6.1
			l1.569,0.047l2.277,4.293c-0.012-0.246-0.016-0.478-0.008-0.693l0.104-3.529l1.297,0.039l-0.184,6.1L177.805,43.006z"/>
		<polygon fill="#FAD704" points="181.809,43.291 182.755,37.263 187.537,38.015 187.357,39.156 183.993,38.627 183.795,39.894 
			186.906,40.384 186.727,41.524 183.615,41.035 183.404,42.373 186.938,42.928 186.759,44.07 		"/>
		
			<rect x="191.227" y="42.26" transform="matrix(0.3129 -0.9498 0.9498 0.3129 92.6712 214.0539)" fill="#FAD704" width="6.102" height="1.434"/>
		<path fill="#FAD704" d="M200.021,48.319c-0.446,0-0.97-0.13-1.554-0.386c-0.708-0.311-1.217-0.688-1.512-1.119
			c-0.3-0.441-0.396-0.954-0.285-1.525l0.021-0.104l1.365,0.349l-0.016,0.09c-0.048,0.294-0.001,0.536,0.145,0.74
			c0.146,0.207,0.402,0.392,0.767,0.552c0.317,0.139,0.586,0.209,0.801,0.209c0.276,0,0.463-0.118,0.569-0.36
			c0.058-0.131,0.066-0.251,0.027-0.367c-0.043-0.124-0.127-0.251-0.252-0.379c-0.13-0.133-0.408-0.351-0.83-0.647
			c-0.369-0.276-0.619-0.479-0.754-0.607c-0.14-0.132-0.257-0.268-0.354-0.407c-0.101-0.143-0.173-0.296-0.218-0.456
			c-0.043-0.162-0.059-0.335-0.041-0.515c0.017-0.18,0.068-0.373,0.156-0.574c0.228-0.518,0.603-0.833,1.114-0.938
			c0.123-0.025,0.254-0.038,0.39-0.038c0.418,0,0.902,0.12,1.442,0.358c0.687,0.3,1.161,0.641,1.415,1.012
			c0.259,0.379,0.329,0.851,0.208,1.403l-0.022,0.104l-1.352-0.386l0.016-0.089c0.043-0.233,0.01-0.432-0.1-0.605
			c-0.109-0.176-0.318-0.332-0.619-0.464c-0.27-0.117-0.497-0.177-0.681-0.177c-0.241,0-0.405,0.104-0.499,0.319
			c-0.053,0.118-0.064,0.228-0.037,0.327c0.029,0.106,0.098,0.217,0.201,0.329c0.109,0.12,0.363,0.323,0.752,0.605
			c0.48,0.345,0.807,0.609,0.994,0.806c0.189,0.2,0.328,0.398,0.408,0.589c0.08,0.195,0.119,0.403,0.11,0.618
			c-0.007,0.215-0.063,0.443-0.166,0.679c-0.245,0.558-0.646,0.899-1.192,1.013C200.311,48.305,200.168,48.319,200.021,48.319z"/>
		<polygon fill="#FAD704" points="204.063,50.653 206.572,46.391 204.932,45.423 205.518,44.428 210.041,47.094 209.455,48.089 
			207.809,47.119 205.298,51.381 		"/>
		<polygon fill="#FAD704" points="211.55,55.74 213.09,53.732 211.208,52.288 209.668,54.295 208.527,53.421 212.243,48.58 
			213.383,49.454 211.952,51.318 213.834,52.763 215.266,50.898 216.404,51.772 212.689,56.613 		"/>
		<path fill="#FAD704" d="M217.945,61.661l2.793-2.753c0.019-0.018,0.057-0.053,0.115-0.106c-0.283,0.157-0.502,0.275-0.658,0.354
			l-3.156,1.588l-0.719-0.729l1.629-3.134l0.383-0.677c-0.131,0.139-0.23,0.243-0.3,0.311l-2.618,2.583l-0.911-0.924l4.345-4.286
			l1.282,1.301l-1.642,3.134l-0.164,0.292l-0.229,0.381l0.53-0.295l3.296-1.696L223.2,58.3l-4.345,4.286L217.945,61.661z"/>
		<path fill="#FAD704" d="M223.973,67.771c-0.138,0-0.277-0.014-0.414-0.042c-0.627-0.128-1.207-0.542-1.722-1.23
			c-0.5-0.67-0.722-1.316-0.659-1.922c0.063-0.607,0.402-1.148,1.016-1.606l3.037-2.268l0.858,1.15l-2.96,2.21
			c-0.352,0.263-0.559,0.546-0.613,0.841c-0.055,0.292,0.039,0.602,0.276,0.922c0.25,0.333,0.526,0.513,0.845,0.549
			c0.037,0.004,0.075,0.006,0.113,0.006c0.283,0,0.586-0.118,0.898-0.352l2.928-2.186l0.857,1.151l-2.986,2.23
			C224.962,67.587,224.466,67.771,223.973,67.771z"/>
		<path fill="#FAD704" d="M227.968,74.353c-0.229,0-0.456-0.053-0.678-0.156c-0.494-0.23-0.956-0.721-1.374-1.458
			c-0.38-0.673-0.563-1.278-0.539-1.801c0.021-0.532,0.253-1,0.686-1.392l0.078-0.071l0.883,1.095l-0.065,0.063
			c-0.214,0.207-0.321,0.429-0.329,0.678c-0.006,0.254,0.09,0.558,0.284,0.901c0.296,0.522,0.595,0.787,0.89,0.787
			c0.096,0,0.196-0.029,0.299-0.086c0.123-0.07,0.203-0.162,0.24-0.278c0.041-0.124,0.051-0.276,0.026-0.454
			c-0.024-0.186-0.117-0.527-0.276-1.014c-0.13-0.443-0.21-0.755-0.24-0.939c-0.031-0.189-0.045-0.368-0.039-0.538
			c0.006-0.172,0.039-0.338,0.099-0.494c0.062-0.156,0.153-0.303,0.274-0.438c0.121-0.134,0.279-0.257,0.471-0.366
			c0.271-0.154,0.547-0.232,0.814-0.232c0.215,0,0.43,0.05,0.641,0.149c0.461,0.217,0.891,0.673,1.275,1.354
			c0.367,0.65,0.545,1.208,0.524,1.657c-0.021,0.459-0.246,0.879-0.673,1.249l-0.08,0.07l-0.852-1.119l0.065-0.062
			c0.173-0.162,0.267-0.34,0.282-0.544c0.018-0.206-0.057-0.455-0.219-0.742c-0.252-0.445-0.508-0.67-0.763-0.67
			c-0.086,0-0.176,0.026-0.269,0.078c-0.112,0.064-0.187,0.143-0.225,0.239c-0.039,0.103-0.052,0.232-0.035,0.384
			c0.017,0.164,0.098,0.479,0.239,0.935c0.179,0.565,0.281,0.971,0.313,1.241c0.031,0.275,0.023,0.516-0.027,0.716
			c-0.049,0.202-0.145,0.391-0.279,0.563c-0.136,0.168-0.316,0.317-0.541,0.444C228.557,74.268,228.258,74.353,227.968,74.353z"/>
		<path fill="#FAD704" d="M233.333,85.399c-0.172,0-0.34-0.014-0.506-0.041c-0.536-0.088-1.005-0.318-1.394-0.684
			c-0.388-0.362-0.682-0.844-0.873-1.43c-0.297-0.905-0.262-1.714,0.105-2.405c0.365-0.691,1.02-1.195,1.941-1.498
			c0.431-0.141,0.842-0.212,1.222-0.212c0.435,0,0.839,0.093,1.206,0.276c0.689,0.345,1.189,0.98,1.488,1.892
			c0.3,0.912,0.271,1.723-0.086,2.412c-0.356,0.688-1,1.188-1.91,1.488C234.117,85.33,233.715,85.399,233.333,85.399z
			 M233.93,80.558c-0.264,0-0.557,0.053-0.871,0.156c-0.59,0.193-1.013,0.488-1.257,0.875c-0.243,0.387-0.284,0.809-0.128,1.29
			c0.165,0.5,0.445,0.822,0.858,0.984c0.187,0.073,0.395,0.11,0.618,0.11l0,0c0.276,0,0.588-0.056,0.924-0.166
			c0.578-0.19,0.992-0.477,1.228-0.854c0.236-0.377,0.271-0.799,0.11-1.292c-0.165-0.5-0.444-0.824-0.854-0.988
			C234.368,80.597,234.157,80.558,233.93,80.558z"/>
		<polygon fill="#FAD704" points="234.492,89.288 232.365,89.696 232.096,88.286 238.087,87.135 238.945,91.606 237.813,91.824 
			237.225,88.763 235.627,89.07 236.195,92.036 235.063,92.254 		"/>
		<path fill="#FAD704" d="M237.682,103.794c-0.377,0-0.724-0.086-1.027-0.257c-0.316-0.178-0.567-0.438-0.744-0.771
			c-0.176-0.332-0.268-0.733-0.273-1.19l-0.023-1.366l-2.077,0.034l-0.022-1.436l6.103-0.099l0.044,2.751
			c0.012,0.729-0.151,1.302-0.484,1.704c-0.338,0.409-0.824,0.621-1.445,0.63L237.682,103.794z M236.782,101.401
			c0.005,0.313,0.085,0.553,0.237,0.716c0.149,0.156,0.357,0.232,0.639,0.232c0.306-0.004,0.508-0.086,0.641-0.248
			c0.137-0.167,0.202-0.422,0.197-0.763l-0.02-1.178l-1.715,0.028L236.782,101.401z"/>
		<path fill="#FAD704" d="M233.027,109.516l1.557-0.356l0.229-2.095l-1.441-0.686l0.158-1.441l5.824,2.879l-0.174,1.588
			l-6.309,1.539L233.027,109.516z M235.745,108.938l1.614-0.362l0.555-0.111l-0.109-0.045c-0.119-0.051-0.755-0.347-1.904-0.888
			L235.745,108.938z"/>
		<path fill="#FAD704" d="M231.258,117.997l0.383-1.562l4.627-1.308c-0.232-0.037-0.431-0.075-0.594-0.114l-3.479-0.851l0.308-1.261
			l5.929,1.449l-0.373,1.523l-4.675,1.334c0.241,0.039,0.47,0.085,0.681,0.137l3.431,0.838l-0.31,1.262L231.258,117.997z"/>
		<path fill="#FAD704" d="M228.495,125.529l0.521-1.34l1.596,0.06l0.765-1.963l-1.216-1.035l0.525-1.353l4.879,4.287l-0.578,1.489
			L228.495,125.529z M233.441,124.404l0.565,0.037l-0.095-0.073c-0.104-0.08-0.639-0.53-1.61-1.351l-0.514,1.318L233.441,124.404z"
			/>
		<path fill="#FAD704" d="M224.63,132.734l0.634-1.133l3.422,1.914c0.021,0.014,0.065,0.041,0.133,0.08
			c-0.229-0.226-0.402-0.402-0.521-0.531l-2.404-2.588l0.5-0.896l3.465,0.692l0.76,0.179c-0.172-0.089-0.301-0.155-0.385-0.203
			l-3.209-1.794l0.633-1.133l5.326,2.979l-0.893,1.596l-3.468-0.705l-0.326-0.073l-0.43-0.115l0.432,0.429l2.548,2.691l-0.89,1.589
			L224.63,132.734z"/>
		<path fill="#FAD704" d="M219.889,139.217l0.866-1.146l1.519,0.494l1.271-1.681l-0.886-1.327l0.876-1.156l3.521,5.459l-0.966,1.273
			L219.889,139.217z M224.954,139.486l0.53,0.188c-0.022-0.03-0.045-0.062-0.067-0.094c-0.076-0.104-0.469-0.685-1.179-1.741
			l-0.855,1.131L224.954,139.486z"/>
	</g>
</g>
<g id="Shield">
	<path fill="#252F6B" d="M174.999,67h-31.833l4.802,4.5v46.833c0,6.5,8.002,7.668,13.338,8.334c5.335,0.666,11.381-0.5,13.694,5
		c2.313-5.5,8.359-4.334,13.693-5c5.336-0.666,13.339-1.834,13.339-8.334V71.5l4.802-4.5H174.999z"/>
	<rect x="149.167" y="76.167" fill="#FFFFFF" width="51.666" height="10.333"/>
	<g>
		<rect x="169" y="76.167" fill="#D31F26" width="3.333" height="10.333"/>
		<rect x="160.666" y="76.167" fill="#D31F26" width="3.333" height="10.333"/>
		<rect x="152.5" y="76.167" fill="#D31F26" width="3.333" height="10.333"/>
		<rect x="177.666" y="76.167" fill="#D31F26" width="3.333" height="10.333"/>
		<rect x="186" y="76.167" fill="#D31F26" width="3.332" height="10.333"/>
		<rect x="194.166" y="76.167" fill="#D31F26" width="3.333" height="10.333"/>
	</g>
	<path fill="#FAD704" d="M149.167,86.5v20.667h15.097l0.235-4.5l-0.375-0.917l2.709-0.5c1.875-1.875,2.875-3.625,3-5.5h4.375v-2.5
		c-1.375,0.25-1.875,0.25-2.375,0.875c0,0-0.125-0.75-1.25-1.375c0,0,0.458-1.375,1.667-1.625s1.583-1.625,3.083-1.625v6.25h4
		c0.125,1.875,1.125,3.625,3,5.5l3.541,0.5l-0.375,0.917l-1.265,4.5h16.598V86.5H149.167z"/>
	<path fill="#D31F26" d="M149.167,107.167c7.166-3.667,9.666-4,15.333-4.5c2.333,3.5,2.167,6,2.167,8.333l1.833,0.667l-2,5.333
		h-1.333C162.666,111.667,156.667,109.334,149.167,107.167z"/>
	<path fill="#D31F26" d="M200.832,107.167c-7.166-3.667-9.666-4-15.333-4.5c-2.333,3.5-2.166,6-2.166,8.333l-1.834,0.667l2,5.333
		h1.334C187.333,111.667,193.331,109.334,200.832,107.167z"/>
	<g>
		<path fill="#FFFFFF" d="M170.666,96.833c-0.292,1.229-1.292,3.354-2.167,4.229h11.688c-1-1.563-1.438-2.521-1.5-4.229H170.666z"/>
		<path fill="#FFFFFF" d="M167.749,110.313c-0.063-3.125-1.125-5.813-2-7.5h18.125c-1.188,2.063-1.313,5.938-1.438,7.5h-3.104
			L174.999,105l-4.875,5.313H167.749z"/>
		<polygon fill="#FFFFFF" points="174.562,106.875 174.562,111.313 171.312,110.313 		"/>
		<polygon fill="#FFFFFF" points="175.249,106.875 175.249,111.313 178.499,110.313 		"/>
	</g>
	<path fill="none" stroke="#FFFFFF" stroke-width="0.7" stroke-linecap="round" stroke-miterlimit="10" d="M153.749,118.834
		c8.5,0,43.334,0.583,43.334,1c0,0.75-42,0.916-42,1.5c0,0.833,35.083,0.416,35.083,1c0,0.833-28.083,1.083-28.083,1.583
		s20.583,0.583,20.583,0.917c0,0.583-8.854,0.916-8.854,2.166"/>
</g>
<g id="Ribbon">
	<path fill="#FAD704" stroke="#252F6B" stroke-width="0.9" stroke-miterlimit="10" d="M215.779,109.5
		c-1.375-3,0.75-5.375,0.75-5.375s3,1.75,4.125,0.125s-1.375-2.25-3.375-3.188s-2.375-1.395-4.5-1.729
		c-1.852-0.291-3.375,2.916-3.625,6.041s0,7.25,3.625,7.625c0.906,0.094,2.343,0.317,2.646,0.94c0,0-1.615,5.81-5.271,8.435
		c-4.875,3.5-11.5,3.625-17.375,6.125S181.218,141,174.812,141c-6.406,0-12.094-10-17.969-12.5s-12.5-2.625-17.375-6.125
		c-3.656-2.625-5.271-8.436-5.271-8.436c0.305-0.623,1.74-0.847,2.646-0.939c3.625-0.375,3.875-4.5,3.625-7.625
		s-1.773-6.332-3.625-6.041c-2.125,0.334-2.5,0.791-4.5,1.729s-4.5,1.563-3.375,3.188s4.125-0.125,4.125-0.125
		s2.125,2.375,0.75,5.375c-5.75,1.5-5.75,2.5-5.75,5.25s0.375,6.25,5.875,11.875s12.375,4.875,19.5,8.125S164.593,148,174.812,148
		s14.219-10,21.344-13.25s14-2.5,19.5-8.125s5.875-9.125,5.875-11.875S221.529,111,215.779,109.5z"/>
	<path fill="none" stroke="#252F6B" stroke-width="0.9" stroke-miterlimit="10" d="M137.486,112.884
		c-1.893,0.116-0.893-1.821-0.518-2.259s0.5-2.063-3.125-1.125"/>
	<path fill="none" stroke="#252F6B" stroke-width="0.9" stroke-miterlimit="10" d="M135.405,109.213
		c-1.87,0.368-2.103,2.301-1.208,4.729"/>
	<path fill="none" stroke="#252F6B" stroke-width="0.9" stroke-miterlimit="10" d="M136.843,99.334
		c-1.438,0.104-1.5,1.729-0.938,2.541c0.562,0.813,2.75,0.5,2.125-0.688c-0.438-0.688-1.438-0.25-2.188-0.125"/>
	<path fill="#FAD704" stroke="#252F6B" stroke-width="0.9" stroke-miterlimit="10" d="M136.99,102.328
		c-1.209,0.047-2.397,0.984-3.897,1.797"/>
	<path fill="none" stroke="#252F6B" stroke-width="0.9" stroke-miterlimit="10" d="M212.139,112.884
		c1.893,0.116,0.893-1.821,0.518-2.259s-0.5-2.063,3.125-1.125"/>
	<path fill="none" stroke="#252F6B" stroke-width="0.9" stroke-miterlimit="10" d="M214.218,109.213
		c1.87,0.368,2.104,2.301,1.209,4.729"/>
	<path fill="none" stroke="#252F6B" stroke-width="0.9" stroke-miterlimit="10" d="M212.779,99.334
		c1.438,0.104,1.5,1.729,0.938,2.541c-0.562,0.813-2.75,0.5-2.125-0.688c0.438-0.688,1.438-0.25,2.188-0.125"/>
	<path fill="#FAD704" stroke="#252F6B" stroke-width="0.9" stroke-miterlimit="10" d="M212.634,102.328
		c1.209,0.047,2.396,0.984,3.896,1.797"/>
	<g>
		<g>
			<path fill="#252F6B" d="M181.259,142.191l1.136,1.67l-0.418,0.283l-1.135-1.67l-0.643,0.438l-0.221-0.322l1.705-1.157
				l0.219,0.321L181.259,142.191z"/>
			<path fill="#252F6B" d="M184.966,141.747l-0.692-0.767l-0.777,0.705l0.693,0.766l-0.375,0.338l-1.615-1.785l0.374-0.338
				l0.644,0.71l0.777-0.704l-0.643-0.71l0.373-0.339l1.615,1.785L184.966,141.747z"/>
			<path fill="#252F6B" d="M186.117,140.626l-1.734-1.67l1.313-1.364l0.281,0.271l-0.963,1.001l0.436,0.42l0.892-0.927l0.28,0.271
				l-0.893,0.927l0.457,0.439l1.014-1.053l0.279,0.271L186.117,140.626z"/>
			<path fill="#252F6B" d="M190.835,135.758l-0.426,0.42l-1.21-0.763c-0.145-0.089-0.288-0.188-0.434-0.296
				c0.086,0.126,0.149,0.223,0.191,0.29c0.043,0.067,0.322,0.524,0.84,1.37l-0.426,0.421l-2.133-1.28l0.365-0.357l1.34,0.862
				l0.318,0.212c-0.088-0.135-0.172-0.265-0.252-0.388c-0.08-0.124-0.345-0.556-0.794-1.292l0.401-0.396l1.115,0.699
				c0.086,0.051,0.267,0.178,0.543,0.377l-0.108-0.171l-0.211-0.344l-0.733-1.158l0.364-0.358L190.835,135.758z"/>
			<path fill="#252F6B" d="M192.951,132.523c0.148,0.201,0.238,0.408,0.271,0.621c0.032,0.211,0.004,0.412-0.084,0.604
				c-0.09,0.189-0.232,0.357-0.432,0.504c-0.305,0.225-0.609,0.311-0.915,0.258c-0.306-0.052-0.571-0.234-0.802-0.547
				c-0.229-0.311-0.32-0.617-0.276-0.918c0.045-0.302,0.222-0.564,0.528-0.791c0.308-0.227,0.611-0.314,0.915-0.266
				C192.46,132.036,192.725,132.217,192.951,132.523z M192.536,132.828c-0.153-0.209-0.323-0.337-0.511-0.383
				c-0.187-0.047-0.369-0.004-0.549,0.129c-0.182,0.134-0.277,0.296-0.291,0.486c-0.013,0.19,0.06,0.392,0.215,0.604
				c0.156,0.213,0.33,0.343,0.521,0.391c0.191,0.049,0.375,0.008,0.551-0.121c0.182-0.134,0.277-0.295,0.289-0.488
				C192.773,133.254,192.698,133.048,192.536,132.828z"/>
			<path fill="#252F6B" d="M195.875,132.477l-0.877-0.617l-0.542,0.234l0.362,0.84l-0.463,0.2l-0.957-2.21l1.104-0.479
				c0.265-0.113,0.491-0.146,0.685-0.094c0.191,0.051,0.334,0.184,0.427,0.396c0.065,0.155,0.081,0.308,0.04,0.458
				c-0.038,0.15-0.125,0.275-0.26,0.376l1,0.67L195.875,132.477z M195.156,130.968c-0.092-0.212-0.273-0.26-0.547-0.142
				l-0.592,0.257l0.282,0.651l0.604-0.262c0.13-0.057,0.216-0.129,0.257-0.216C195.204,131.17,195.202,131.073,195.156,130.968z"/>
			<path fill="#252F6B" d="M197.141,132.004l-0.724-2.297l0.481-0.15l0.604,1.926l1.231-0.389l0.117,0.372L197.141,132.004z"/>
			<path fill="#252F6B" d="M201.43,129.549c0.062,0.24,0.065,0.463,0.016,0.666c-0.049,0.203-0.148,0.374-0.299,0.512
				c-0.148,0.14-0.336,0.235-0.559,0.291l-0.945,0.235l-0.582-2.337l0.847-0.21c0.394-0.099,0.723-0.075,0.987,0.069
				C201.159,128.921,201.338,129.178,201.43,129.549z M200.938,129.671c-0.063-0.251-0.176-0.426-0.338-0.524
				c-0.164-0.101-0.367-0.119-0.608-0.061l-0.347,0.087l0.394,1.58l0.415-0.104c0.21-0.051,0.357-0.166,0.445-0.342
				S200.999,129.92,200.938,129.671z"/>
			<path fill="#252F6B" d="M205.064,129.975c-0.32,0.082-0.586,0.066-0.797-0.047c-0.211-0.111-0.354-0.313-0.43-0.604l-0.375-1.459
				l0.488-0.125l0.365,1.42c0.048,0.185,0.127,0.313,0.238,0.386c0.112,0.072,0.254,0.087,0.424,0.044
				c0.174-0.045,0.297-0.13,0.363-0.254c0.068-0.124,0.078-0.278,0.03-0.466l-0.36-1.403l0.487-0.125l0.369,1.433
				c0.075,0.297,0.044,0.55-0.097,0.76C205.633,129.74,205.396,129.889,205.064,129.975z"/>
			<path fill="#252F6B" d="M208.574,128.859l-1.614-1.391c0.08,0.162,0.14,0.295,0.177,0.397l0.479,1.337l-0.421,0.15l-0.815-2.266
				l0.542-0.195l1.635,1.398c-0.078-0.154-0.141-0.299-0.188-0.432l-0.475-1.316l0.422-0.152l0.814,2.268L208.574,128.859z"/>
			<path fill="#252F6B" d="M210.206,128.15l-1.091-2.146l0.449-0.229l1.09,2.147L210.206,128.15z"/>
			<path fill="#252F6B" d="M211.438,125.057l1.176,1.643l-0.41,0.293l-1.176-1.641l-0.631,0.451l-0.228-0.316l1.677-1.199
				l0.227,0.316L211.438,125.057z"/>
			<path fill="#252F6B" d="M214.037,125.496l-1.739-1.666l1.312-1.367l0.281,0.27l-0.961,1.004l0.437,0.418l0.889-0.928l0.281,0.271
				l-0.89,0.928l0.459,0.438l1.01-1.055l0.281,0.271L214.037,125.496z"/>
			<path fill="#252F6B" d="M216.484,120.902c0.192,0.156,0.33,0.332,0.41,0.524c0.082,0.192,0.104,0.39,0.066,0.589
				c-0.038,0.2-0.13,0.389-0.275,0.567l-0.617,0.753l-1.861-1.527l0.553-0.675c0.258-0.313,0.536-0.491,0.836-0.532
				C215.895,120.559,216.189,120.66,216.484,120.902z M216.164,121.295c-0.2-0.164-0.396-0.236-0.586-0.22s-0.365,0.122-0.523,0.315
				l-0.227,0.274l1.259,1.033l0.271-0.33c0.138-0.167,0.188-0.349,0.154-0.541C216.479,121.634,216.361,121.457,216.164,121.295z"/>
		</g>
	</g>
	<g>
		<g>
			<path fill="#252F6B" d="M135.157,122.078l-1.525,1.322l-0.33-0.381l1.525-1.322l-0.509-0.588l0.294-0.256l1.35,1.559
				l-0.294,0.255L135.157,122.078z"/>
			<path fill="#252F6B" d="M135.879,125.771l0.727-0.733l-0.745-0.739l-0.727,0.733l-0.358-0.354l1.695-1.711l0.358,0.355
				l-0.675,0.681l0.746,0.739l0.675-0.682l0.358,0.354l-1.695,1.71L135.879,125.771z"/>
			<path fill="#252F6B" d="M137.313,126.948l1.254-2.056l1.616,0.985l-0.203,0.333l-1.186-0.725l-0.315,0.517l1.097,0.67
				l-0.203,0.332l-1.097-0.669l-0.331,0.541l1.246,0.762l-0.203,0.332L137.313,126.948z"/>
			<path fill="#252F6B" d="M141.535,129.048l0.736-2.293l0.48,0.154l-0.617,1.922l1.23,0.396l-0.119,0.371L141.535,129.048z"/>
			<path fill="#252F6B" d="M145.844,130.259l-0.06-0.647l-0.891-0.221l-0.354,0.547l-0.49-0.121l1.43-2.127l0.578,0.143l0.272,2.547
				L145.844,130.259z M145.679,128.12l-0.019,0.032c-0.021,0.037-0.045,0.08-0.073,0.127c-0.028,0.048-0.192,0.304-0.493,0.77
				l0.672,0.166l-0.065-0.729l-0.016-0.243L145.679,128.12z"/>
			<path fill="#252F6B" d="M148.598,130.907l-0.587-2.048c-0.022,0.18-0.046,0.322-0.071,0.43l-0.332,1.381l-0.436-0.104
				l0.562-2.342l0.56,0.135l0.599,2.065c0.02-0.172,0.047-0.327,0.08-0.464l0.327-1.361l0.436,0.104l-0.562,2.342L148.598,130.907z"
				/>
			<path fill="#252F6B" d="M152.5,130.712c-0.07,0.238-0.178,0.433-0.324,0.583c-0.146,0.148-0.318,0.247-0.517,0.29
				c-0.199,0.044-0.409,0.033-0.629-0.032l-0.934-0.275l0.681-2.31l0.836,0.246c0.389,0.115,0.661,0.302,0.816,0.562
				C152.584,130.034,152.608,130.348,152.5,130.712z M152.013,130.568c0.073-0.248,0.064-0.457-0.026-0.625
				c-0.09-0.168-0.255-0.289-0.495-0.358l-0.343-0.101l-0.46,1.562l0.41,0.121c0.208,0.062,0.394,0.038,0.559-0.067
				C151.822,130.991,151.941,130.814,152.013,130.568z"/>
			<path fill="#252F6B" d="M156.776,132.579c-0.115,0.221-0.258,0.392-0.43,0.51c-0.172,0.119-0.359,0.181-0.563,0.185
				c-0.204,0.006-0.407-0.045-0.611-0.151l-0.864-0.45l1.113-2.136l0.772,0.403c0.36,0.188,0.591,0.422,0.693,0.707
				C156.988,131.93,156.952,132.241,156.776,132.579z M156.326,132.346c0.12-0.229,0.151-0.437,0.095-0.619
				c-0.057-0.183-0.195-0.332-0.417-0.447l-0.317-0.164l-0.752,1.443l0.379,0.197c0.192,0.1,0.379,0.113,0.561,0.04
				S156.208,132.572,156.326,132.346z"/>
			<path fill="#252F6B" d="M156.855,134.165l1.444-1.927l0.403,0.303l-1.444,1.927L156.855,134.165z"/>
			<path fill="#252F6B" d="M158.875,135.855l-0.376-0.346l0.975-2.375l0.387,0.356l-0.682,1.474
				c-0.045,0.096-0.117,0.234-0.215,0.42l0.126-0.084l0.272-0.167l1.411-0.804l0.383,0.354L158.875,135.855z"/>
			<path fill="#252F6B" d="M160.033,136.993l1.723-1.683l0.352,0.36l-1.723,1.683L160.033,136.993z"/>
			<path fill="#252F6B" d="M163.426,138.783c-0.181,0.171-0.372,0.283-0.573,0.34c-0.202,0.057-0.399,0.054-0.593-0.009
				c-0.194-0.063-0.37-0.179-0.528-0.345l-0.668-0.709l1.751-1.652l0.599,0.634c0.278,0.295,0.419,0.594,0.423,0.896
				S163.704,138.521,163.426,138.783z M163.078,138.414c0.188-0.178,0.286-0.362,0.292-0.553c0.007-0.191-0.075-0.379-0.247-0.561
				l-0.245-0.26l-1.185,1.118l0.293,0.312c0.148,0.156,0.321,0.23,0.517,0.221C162.7,138.684,162.892,138.59,163.078,138.414z"/>
			<path fill="#252F6B" d="M163.184,140.302l1.695-1.711l1.345,1.333l-0.274,0.277l-0.987-0.979l-0.426,0.43l0.913,0.904
				l-0.274,0.276l-0.913-0.904l-0.446,0.45l1.037,1.027l-0.274,0.275L163.184,140.302z"/>
			<path fill="#252F6B" d="M167.801,142.807c-0.156,0.193-0.33,0.332-0.522,0.414c-0.192,0.084-0.388,0.107-0.588,0.071
				c-0.2-0.035-0.39-0.125-0.569-0.271l-0.759-0.61l1.511-1.875l0.679,0.547c0.316,0.255,0.496,0.531,0.541,0.83
				C168.138,142.211,168.041,142.509,167.801,142.807z M167.406,142.488c0.162-0.201,0.234-0.397,0.214-0.588
				c-0.019-0.19-0.126-0.364-0.32-0.521l-0.278-0.224l-1.022,1.27l0.333,0.269c0.168,0.136,0.349,0.186,0.542,0.148
				C167.068,142.807,167.245,142.688,167.406,142.488z"/>
		</g>
	</g>
	<rect x="173.738" y="144.25" fill="#252F6B" width="2.146" height="0.75"/>
</g>
</svg>
