<?xml version="1.0" encoding="UTF-8"?>
<svg xmlns="http://www.w3.org/2000/svg" width="1200px" height="600px">
<rect fill="#09f" width="1200" height="600"/>
<rect fill="#ff0" width="800" height="600"/>
<rect fill="#090" width="400" height="600"/>
<path d="M558 460l21 -233c0,0 17,8 30,7l-3 228c26,6 28,18 28,18 0,0 -37,-10 -48,-5 0,0 -6,34 -17,38 0,0 6,-37 -1,-42 -4,-3 -21,10 -21,10 0,0 -5,-14 -17,-11 -3,1 -19,10 -19,10 6,-6 8,-18 47,-21z"/>
<path id="path3171" class="fil2" d="M459 150c58,-58 124,-12 134,52 35,-134 127,-100 147,-60 -46,-2 -98,5 -116,53 8,-9 107,-57 116,36 0,0 -76,-45 -125,-4l-35 -4c-46,-88 -121,-73 -121,-73z"/>
</svg>